Inverse Dynamics Generalized Forces
version=1
nRows=15
nColumns=34
inDegrees=no
endheader 
time	pelvis_tilt_moment	pelvis_list_moment	pelvis_rotation_moment	pelvis_tx_force	pelvis_ty_force	pelvis_tz_force	hip_flexion_l_moment	hip_adduction_l_moment	hip_rotation_l_moment	hip_flexion_r_moment	hip_adduction_r_moment	hip_rotation_r_moment	knee_angle_l_moment	knee_angle_r_moment	ankle_angle_l_moment	ankle_angle_r_moment	subtalar_angle_l_moment	subtalar_angle_r_moment	mtp_angle_l_moment	mtp_angle_r_moment	lumbar_extension_moment	lumbar_bending_moment	lumbar_rotation_moment	arm_flex_l_moment	arm_add_l_moment	arm_rot_l_moment	arm_flex_r_moment	arm_add_r_moment	arm_rot_r_moment	elbow_flex_l_moment	elbow_flex_r_moment	pro_sup_l_moment	pro_sup_r_moment	
         10.60000000	         -0.00000001	         -0.00000002	         -0.00000001	         -0.00000000	         -0.00000005	          0.00000002	         41.14869463	         -9.46682060	         -2.01595741	        140.07410371	         68.35125589	        -24.20467569	         -1.30742205	        -69.12841813	          5.22228711	          8.22394963	         -1.61038215	         -2.97352852	         -0.31474386	         -0.41243313	       -205.59441593	        -43.98487053	        -60.17841566	        -41.98781654	        -93.58820117	         72.20360351	         88.11184876	        136.71695626	        133.53228820	       -104.25216195	         13.03490313	         11.88229226	          1.38432367	
         10.61000000	          0.00000001	         -0.00000001	          0.00000000	         -0.00000001	         -0.00000002	          0.00000001	         75.70427218	        -29.92196506	         -3.19471736	        118.25224308	         50.87378248	        -19.77699435	         -3.47630039	        -54.81285326	          2.76189796	          8.65867774	         -1.29598422	         -2.75873647	         -0.01256805	         -0.55398761	       -229.05598455	        -70.05405954	        -37.03158454	          4.21899353	       -106.60020249	         86.51376798	         28.45605758	        129.39684931	        136.07252357	       -107.48019582	         47.49752726	         18.02090508	          1.67513975	
         10.62000000	         -0.00000006	          0.00000002	         -0.00000000	          0.00000008	          0.00000012	          0.00000002	         94.76685706	        -14.49367087	         -2.08704021	         99.24673946	         36.01614697	        -16.24310909	         -3.21091223	        -41.69405181	          4.70169294	          7.34786875	         -1.18098281	         -2.68810840	         -0.17121908	         -0.41055226	       -246.68695408	       -127.20021950	        -31.51016798	        -36.14606950	        -46.54824388	         15.42583976	        -16.50995076	         96.49706362	        137.70780810	        -39.80872549	         73.41818784	        -21.00012683	          2.13888778	
         10.63000000	          0.00000005	          0.00000008	          0.00000001	         -0.00000006	         -0.00000005	          0.00000005	        -17.88391119	          7.19729233	         -7.08234797	         66.96373887	         21.91238611	        -14.00777531	         37.22122723	        -27.58583113	          1.02885919	          2.09881436	          0.13167370	         -0.28947584	         -0.05295151	         -0.10418354	       -259.93629453	        -89.61089633	        -55.53240148	        -56.25541502	          3.11832746	        -30.42078279	        -50.44173869	         35.06047061	         68.35905686	          9.77573131	         92.66060462	        -52.52266693	          0.99079320	
         10.64000000	         -0.00000002	          0.00000001	          0.00000000	          0.00000003	         -0.00000001	         -0.00000000	         89.58979660	         -8.52294261	          0.96808572	         61.49639655	         16.00622292	         -9.77477100	          5.98989548	        -44.64210101	          1.65696385	          2.13801880	         -1.10454213	         -0.75522701	          0.06993428	         -0.02092790	       -244.12995447	       -114.03224832	         -8.91584151	        -86.83926963	         40.21391436	        -49.32356488	        -76.19247417	        -11.70933264	         12.02181324	        -16.10679125	        106.96520267	         -1.72818806	         -0.43271436	
         10.65000000	         -0.00000001	         -0.00000000	         -0.00000000	          0.00000002	         -0.00000001	          0.00000001	         77.66611080	         -8.24100092	         -0.05995997	         38.76817686	         15.79621638	         -6.94194417	          2.14625105	        -29.79662991	          1.23541829	         -1.01275225	         -0.90028929	          0.50847776	          0.11598401	          0.19709092	       -222.78096494	       -120.20426337	        -44.31839273	       -102.31920806	         67.06506776	        -75.17822411	        -94.76888872	        -47.46648038	        -29.23114040	        -50.00595964	         92.04320700	          0.64125379	         -2.98437048	
         10.66000000	          0.00000000	          0.00000001	          0.00000000	          0.00000000	          0.00000000	          0.00000000	         92.80489322	        -21.62942466	          0.36985707	         17.10456928	         18.25946833	         -5.13920205	        -15.73198639	        -16.90660671	          2.25807739	         -1.64756546	         -1.79413258	          0.91790221	          0.09411070	          0.17885476	       -215.62438545	        -94.77646650	        -70.90817876	       -113.30371594	         87.45402798	        -89.74266262	       -107.72536766	        -74.29833105	        -58.79486717	        -60.41705078	         29.96733630	         -4.41671110	         -3.05737889	
         10.67000000	         -0.00000001	         -0.00000001	          0.00000000	          0.00000001	          0.00000001	         -0.00000000	         84.77243794	        -20.28127238	          2.57074904	         13.60812632	          7.64661758	         -1.44890761	        -11.25720275	        -15.21765383	          1.46008251	         -0.79667407	         -1.42579274	          0.58196575	          0.13727909	          0.11015331	       -208.82382114	        -50.51879864	        -64.62778713	       -121.41070232	        103.12666029	        -25.83161020	        -81.92007614	        -78.15051503	        -25.57888968	        -47.34646400	        -15.44402811	         -6.17099212	         -0.45040341	
         10.68000000	         -0.00000003	          0.00000003	          0.00000002	          0.00000003	          0.00000001	          0.00000003	         86.26629035	        -24.20281446	          3.44849628	        -30.79446105	        -11.08628611	          1.24699807	        -15.00979817	          1.00163982	          0.63331650	          0.36650481	         -0.66844690	         -0.19177288	          0.16335222	          0.01873416	       -119.17224415	        -25.07504511	          4.54720818	       -128.48333858	        114.38219561	         22.20675049	        -19.99280985	        -21.72153751	        -57.93497455	        -73.43641054	         26.34924546	          0.57895836	         -0.86057651	
         10.69000000	          0.00000006	          0.00000002	         -0.00000001	         -0.00000005	         -0.00000003	          0.00000001	        118.86825242	        -33.56898340	         21.53945394	          4.22293056	        -54.18800700	         25.73419968	         -5.24786641	          5.13539841	          6.28717970	          4.46403401	         -3.14764843	         -2.80775126	         -0.09850381	         -0.24706185	       -164.05743330	         55.70952759	         39.43644238	       -134.63929481	         71.33223472	         54.18931753	         32.37218171	         21.42942699	        -88.18614601	        -37.35384194	         58.29078005	         11.43696574	         -7.37801067	
         10.70000000	          0.00000002	         -0.00000001	         -0.00000001	         -0.00000003	         -0.00000001	         -0.00000002	        102.23654023	        -29.15839529	         15.24776697	        -55.69883529	       -121.94272950	         69.58267553	         -6.56067858	         10.16819044	          0.16872502	          2.21802840	          0.11293769	         -4.47182364	          0.12711569	          0.18172015	        -81.37608488	        116.41853805	        104.17573098	       -137.47231450	         16.92535025	         33.16592870	        -19.77002076	         55.93280702	        -18.22364710	         10.73796963	         82.34346087	          5.93449086	         -6.90086948	
         10.71000000	         -0.00000002	          0.00000000	          0.00000001	          0.00000003	         -0.00000002	          0.00000000	         84.07471882	        -31.37212544	         20.50461703	        -53.44676211	       -163.98965765	         81.18951686	         10.60280916	         17.27023126	          0.44476214	          3.50401599	          0.03892472	         -5.77838222	          0.11261677	          0.16866074	        -79.99673901	        162.04170844	        126.21076887	        -65.24245400	        -24.30359359	        -15.78029280	         26.56947642	         80.62670879	        -26.17752187	         46.60863186	        102.15364394	         -5.60648272	        -12.79912709	
         10.72000000	         -0.00000004	         -0.00000005	          0.00000000	          0.00000003	          0.00000005	         -0.00000003	         65.06210190	         -4.18395489	         13.60245985	        -98.08290793	       -172.06069312	         84.88619635	         16.34263985	         50.84957175	          1.79496165	          4.32243176	          0.20910379	         -6.43798026	         -0.06188476	          0.06369633	         14.43758488	        196.32686128	        169.36092046	        -11.99642062	        -55.20352689	        -48.61853055	        -24.94698617	        100.30913696	         26.26602685	         71.80220766	        116.49548161	        -10.82931187	         -4.56183720	
         10.73000000	         -0.00000004	         -0.00000001	          0.00000001	          0.00000002	          0.00000003	          0.00000001	         30.11559556	        -30.40502166	         22.64261640	       -104.42833339	       -156.41391466	         70.07151088	         31.80226886	         70.33553555	          5.47773267	          3.19654534	         -3.48320997	         -4.12647952	         -0.24635423	         -0.10752454	         85.40447071	        222.09168758	        197.83354368	         28.18586299	        -79.13756091	        -13.14978988	        -48.90935862	         38.90219400	         -4.09292648	         26.73861349	        124.77816360	         -3.17516970	        -11.76588007	
         10.74000000	          0.00000001	          0.00000004	          0.00000001	         -0.00000002	         -0.00000003	          0.00000005	         28.13992322	        -71.97104652	         29.15434357	       -138.04062016	       -123.97524390	         51.23607207	         16.68639370	         96.79539660	          8.16244847	          0.60922508	         -7.45232369	         -2.28878092	         -0.34944861	         -0.13293583	        138.73020554	        241.45345225	        213.45987134	         58.43011415	        -96.85970544	         28.92277757	        -73.99095408	         -7.20694035	         30.44803773	        -17.85397710	        129.03914243	          5.05767280	          6.20711165	
